# xmcd
#
# Track frame offsets: 
#        150
#        9159
#        26211
#        43756
#        56711
#        71141
#        83905
#        95711
#        114244
#        133553
#        150818
#        169368
#
# Disc length: 2500 seconds
#
# Revision: 1
# Processed by: cddbd v1.5.2PL0 Copyright (c) Steve Scherf et al.
# Submitted via: ExactAudioCopy v0.99pb4
#
DISCID=9809c20c
DTITLE=Cat Power - Jukebox (deluxe edition) [CD1]
DYEAR=2008
DGENRE=Blues
TTITLE0=New York
TTITLE1=Ramblin' (Wo)man
TTITLE2=Metal Heart
TTITLE3=Silver Stallion
TTITLE4=Aretha, Sing One for Me
TTITLE5=Lost Someone
TTITLE6=Lord, Help the Poor and Needy
TTITLE7=I Believe in You
TTITLE8=Song to Bobby
TTITLE9=Don't Explain
TTITLE10=Woman Left Lonely
TTITLE11=Blue
EXTD=YEAR: 2008
EXTT0=
EXTT1=
EXTT2=
EXTT3=
EXTT4=
EXTT5=
EXTT6=
EXTT7=
EXTT8=
EXTT9=
EXTT10=
EXTT11=
PLAYORDER=
